<mxfile host="app.diagrams.net" modified="2023-01-04T14:01:54.853Z" agent="5.0 (Windows NT 10.0; Win64; x64) AppleWebKit/537.36 (KHTML, like Gecko) Chrome/108.0.0.0 Safari/537.36" version="20.8.0" etag="GkbI4H9W_l8RTBpxY4FE" type="github">
  <diagram id="ihOUBqgb_S4RoYMTTduR" name="Page-1">
    <mxGraphModel dx="1858" dy="1010" grid="1" gridSize="10" guides="1" tooltips="1" connect="1" arrows="1" fold="1" page="1" pageScale="1" pageWidth="1169" pageHeight="827" math="0" shadow="0">
      <root>
        <mxCell id="0" />
        <mxCell id="1" parent="0" />
        <mxCell id="OGcHaT_iSXUaaKnwIIUN-7" value="" style="edgeStyle=none;rounded=0;orthogonalLoop=1;jettySize=auto;html=1;fontSize=15;endArrow=none;endFill=0;" edge="1" parent="1" source="OGcHaT_iSXUaaKnwIIUN-1" target="OGcHaT_iSXUaaKnwIIUN-5">
          <mxGeometry relative="1" as="geometry" />
        </mxCell>
        <mxCell id="OGcHaT_iSXUaaKnwIIUN-11" style="edgeStyle=elbowEdgeStyle;rounded=0;orthogonalLoop=1;jettySize=auto;html=1;entryX=0.5;entryY=0;entryDx=0;entryDy=0;entryPerimeter=0;fontSize=15;endArrow=none;endFill=0;" edge="1" parent="1" source="OGcHaT_iSXUaaKnwIIUN-14" target="OGcHaT_iSXUaaKnwIIUN-2">
          <mxGeometry relative="1" as="geometry">
            <mxPoint x="320" y="120" as="sourcePoint" />
            <Array as="points">
              <mxPoint x="530" y="160" />
            </Array>
          </mxGeometry>
        </mxCell>
        <mxCell id="OGcHaT_iSXUaaKnwIIUN-1" value="" style="pointerEvents=1;fillColor=strokeColor;verticalLabelPosition=bottom;shadow=0;dashed=0;align=center;html=1;verticalAlign=top;shape=mxgraph.electrical.diodes.diode;direction=north;" vertex="1" parent="1">
          <mxGeometry x="299.995" y="120.005" width="40" height="66.67" as="geometry" />
        </mxCell>
        <mxCell id="OGcHaT_iSXUaaKnwIIUN-2" value="M" style="dashed=0;outlineConnect=0;align=center;html=1;shape=mxgraph.pid.engines.electric_motor;fontSize=45;aspect=fixed;" vertex="1" parent="1">
          <mxGeometry x="479.99999999999994" y="149" width="100" height="100" as="geometry" />
        </mxCell>
        <mxCell id="OGcHaT_iSXUaaKnwIIUN-10" style="edgeStyle=elbowEdgeStyle;rounded=0;orthogonalLoop=1;jettySize=auto;html=1;exitX=1;exitY=0.8;exitDx=0;exitDy=0;fontSize=15;endArrow=none;endFill=0;" edge="1" parent="1">
          <mxGeometry relative="1" as="geometry">
            <mxPoint x="220" y="120" as="sourcePoint" />
            <mxPoint x="320" y="124" as="targetPoint" />
            <Array as="points">
              <mxPoint x="320" y="124" />
            </Array>
          </mxGeometry>
        </mxCell>
        <mxCell id="OGcHaT_iSXUaaKnwIIUN-6" style="edgeStyle=none;rounded=0;orthogonalLoop=1;jettySize=auto;html=1;exitX=0;exitY=0.5;exitDx=0;exitDy=0;exitPerimeter=0;fontSize=15;endArrow=none;endFill=0;" edge="1" parent="1" source="OGcHaT_iSXUaaKnwIIUN-5">
          <mxGeometry relative="1" as="geometry">
            <mxPoint x="320" y="190" as="targetPoint" />
          </mxGeometry>
        </mxCell>
        <mxCell id="OGcHaT_iSXUaaKnwIIUN-13" style="edgeStyle=orthogonalEdgeStyle;rounded=0;orthogonalLoop=1;jettySize=auto;html=1;exitX=1;exitY=0.5;exitDx=0;exitDy=0;exitPerimeter=0;entryX=0.5;entryY=1;entryDx=0;entryDy=0;entryPerimeter=0;fontSize=15;endArrow=none;endFill=0;" edge="1" parent="1" source="OGcHaT_iSXUaaKnwIIUN-5" target="OGcHaT_iSXUaaKnwIIUN-2">
          <mxGeometry relative="1" as="geometry">
            <Array as="points">
              <mxPoint x="530" y="290" />
            </Array>
          </mxGeometry>
        </mxCell>
        <mxCell id="OGcHaT_iSXUaaKnwIIUN-5" value="" style="pointerEvents=1;verticalLabelPosition=bottom;shadow=0;dashed=0;align=center;html=1;verticalAlign=top;shape=mxgraph.electrical.resistors.resistor_1;fontSize=15;direction=south;" vertex="1" parent="1">
          <mxGeometry x="310" y="190" width="20" height="100" as="geometry" />
        </mxCell>
        <mxCell id="OGcHaT_iSXUaaKnwIIUN-9" style="edgeStyle=elbowEdgeStyle;rounded=0;orthogonalLoop=1;jettySize=auto;html=1;exitX=1;exitY=0.5;exitDx=0;exitDy=0;exitPerimeter=0;entryX=0;entryY=0.8;entryDx=0;entryDy=0;fontSize=15;endArrow=none;endFill=0;" edge="1" parent="1" source="OGcHaT_iSXUaaKnwIIUN-8">
          <mxGeometry relative="1" as="geometry">
            <mxPoint x="140" y="120" as="targetPoint" />
            <Array as="points">
              <mxPoint x="80" y="130" />
            </Array>
          </mxGeometry>
        </mxCell>
        <mxCell id="OGcHaT_iSXUaaKnwIIUN-12" style="edgeStyle=elbowEdgeStyle;rounded=0;orthogonalLoop=1;jettySize=auto;html=1;exitX=0;exitY=0.5;exitDx=0;exitDy=0;exitPerimeter=0;entryX=1;entryY=0.5;entryDx=0;entryDy=0;entryPerimeter=0;fontSize=15;endArrow=none;endFill=0;startArrow=none;" edge="1" parent="1" source="OGcHaT_iSXUaaKnwIIUN-16" target="OGcHaT_iSXUaaKnwIIUN-5">
          <mxGeometry relative="1" as="geometry">
            <Array as="points" />
          </mxGeometry>
        </mxCell>
        <mxCell id="OGcHaT_iSXUaaKnwIIUN-8" value="" style="verticalLabelPosition=bottom;shadow=0;dashed=0;align=center;fillColor=strokeColor;html=1;verticalAlign=top;strokeWidth=1;shape=mxgraph.electrical.miscellaneous.monocell_battery;fontSize=15;direction=north;" vertex="1" parent="1">
          <mxGeometry x="50" y="150" width="60" height="100" as="geometry" />
        </mxCell>
        <mxCell id="OGcHaT_iSXUaaKnwIIUN-14" value="" style="ellipse;whiteSpace=wrap;html=1;fillColor=#000000;aspect=fixed;fontSize=15;" vertex="1" parent="1">
          <mxGeometry x="317.5" y="117.5" width="5" height="5" as="geometry" />
        </mxCell>
        <mxCell id="OGcHaT_iSXUaaKnwIIUN-15" value="" style="edgeStyle=elbowEdgeStyle;rounded=0;orthogonalLoop=1;jettySize=auto;html=1;exitX=0;exitY=0.5;exitDx=0;exitDy=0;exitPerimeter=0;entryX=1;entryY=0.5;entryDx=0;entryDy=0;entryPerimeter=0;fontSize=15;endArrow=none;endFill=0;" edge="1" parent="1" source="OGcHaT_iSXUaaKnwIIUN-8" target="OGcHaT_iSXUaaKnwIIUN-16">
          <mxGeometry relative="1" as="geometry">
            <mxPoint x="80" y="250" as="sourcePoint" />
            <mxPoint x="320" y="290" as="targetPoint" />
            <Array as="points">
              <mxPoint x="80" y="270" />
            </Array>
          </mxGeometry>
        </mxCell>
        <mxCell id="OGcHaT_iSXUaaKnwIIUN-16" value="" style="ellipse;whiteSpace=wrap;html=1;fillColor=#000000;aspect=fixed;fontSize=15;" vertex="1" parent="1">
          <mxGeometry x="317.5" y="287.5" width="5" height="5" as="geometry" />
        </mxCell>
        <mxCell id="OGcHaT_iSXUaaKnwIIUN-17" value="14&amp;nbsp;&lt;span style=&quot;font-family: sans-serif; text-align: start; background-color: rgb(255, 255, 255);&quot;&gt;&lt;font style=&quot;font-size: 15px;&quot;&gt;â„¦ &lt;/font&gt;&lt;/span&gt;" style="text;html=1;strokeColor=none;fillColor=none;align=center;verticalAlign=middle;whiteSpace=wrap;rounded=0;fontSize=15;" vertex="1" parent="1">
          <mxGeometry x="330" y="225" width="60" height="30" as="geometry" />
        </mxCell>
        <mxCell id="OGcHaT_iSXUaaKnwIIUN-18" value="24 V" style="text;html=1;strokeColor=none;fillColor=none;align=center;verticalAlign=middle;whiteSpace=wrap;rounded=0;fontSize=15;" vertex="1" parent="1">
          <mxGeometry y="200" width="60" height="30" as="geometry" />
        </mxCell>
        <mxCell id="OGcHaT_iSXUaaKnwIIUN-19" value="" style="shape=mxgraph.electrical.electro-mechanical.singleSwitch;aspect=fixed;elSwitchState=on;fontSize=15;fontColor=#000000;" vertex="1" parent="1">
          <mxGeometry x="136" y="100" width="91.88" height="24.5" as="geometry" />
        </mxCell>
        <mxCell id="OGcHaT_iSXUaaKnwIIUN-20" value="IN 4002" style="text;html=1;strokeColor=none;fillColor=none;align=center;verticalAlign=middle;whiteSpace=wrap;rounded=0;fontSize=15;" vertex="1" parent="1">
          <mxGeometry x="350" y="140" width="60" height="30" as="geometry" />
        </mxCell>
        <mxCell id="OGcHaT_iSXUaaKnwIIUN-21" value="Water pump" style="text;html=1;strokeColor=none;fillColor=none;align=center;verticalAlign=middle;whiteSpace=wrap;rounded=0;fontSize=15;" vertex="1" parent="1">
          <mxGeometry x="580" y="185" width="60" height="30" as="geometry" />
        </mxCell>
        <mxCell id="OGcHaT_iSXUaaKnwIIUN-22" value="&lt;font style=&quot;font-size: 19px;&quot;&gt;+&lt;/font&gt;" style="text;html=1;strokeColor=none;fillColor=none;align=center;verticalAlign=middle;whiteSpace=wrap;rounded=0;fontSize=15;" vertex="1" parent="1">
          <mxGeometry x="508" y="123" width="60" height="30" as="geometry" />
        </mxCell>
        <mxCell id="OGcHaT_iSXUaaKnwIIUN-23" value="&lt;font style=&quot;font-size: 22px;&quot;&gt;-&lt;/font&gt;" style="text;html=1;strokeColor=none;fillColor=none;align=center;verticalAlign=middle;whiteSpace=wrap;rounded=0;fontSize=15;" vertex="1" parent="1">
          <mxGeometry x="509" y="242" width="60" height="30" as="geometry" />
        </mxCell>
        <mxCell id="OGcHaT_iSXUaaKnwIIUN-25" value="" style="endArrow=classic;html=1;rounded=0;fontSize=22;fontColor=#000000;" edge="1" parent="1">
          <mxGeometry width="50" height="50" relative="1" as="geometry">
            <mxPoint x="420" y="120" as="sourcePoint" />
            <mxPoint x="470" y="120" as="targetPoint" />
          </mxGeometry>
        </mxCell>
        <mxCell id="OGcHaT_iSXUaaKnwIIUN-26" value="&lt;font style=&quot;font-size: 12px;&quot;&gt;1.8 A&lt;/font&gt;" style="text;html=1;strokeColor=none;fillColor=none;align=center;verticalAlign=middle;whiteSpace=wrap;rounded=0;fontSize=15;" vertex="1" parent="1">
          <mxGeometry x="430" y="92.5" width="60" height="30" as="geometry" />
        </mxCell>
        <mxCell id="OGcHaT_iSXUaaKnwIIUN-28" value="" style="shape=flexArrow;endArrow=classic;html=1;rounded=0;fontSize=12;fontColor=#000000;" edge="1" parent="1">
          <mxGeometry width="50" height="50" relative="1" as="geometry">
            <mxPoint x="317.5" y="320" as="sourcePoint" />
            <mxPoint x="318" y="360" as="targetPoint" />
          </mxGeometry>
        </mxCell>
        <mxCell id="OGcHaT_iSXUaaKnwIIUN-29" value="" style="edgeStyle=none;rounded=0;orthogonalLoop=1;jettySize=auto;html=1;fontSize=15;endArrow=none;endFill=0;" edge="1" parent="1" target="OGcHaT_iSXUaaKnwIIUN-36">
          <mxGeometry relative="1" as="geometry">
            <mxPoint x="319.9969233210247" y="464.17499999999995" as="sourcePoint" />
          </mxGeometry>
        </mxCell>
        <mxCell id="OGcHaT_iSXUaaKnwIIUN-30" style="edgeStyle=elbowEdgeStyle;rounded=0;orthogonalLoop=1;jettySize=auto;html=1;entryX=0.5;entryY=0;entryDx=0;entryDy=0;entryPerimeter=0;fontSize=15;endArrow=none;endFill=0;" edge="1" parent="1" source="OGcHaT_iSXUaaKnwIIUN-40" target="OGcHaT_iSXUaaKnwIIUN-32">
          <mxGeometry relative="1" as="geometry">
            <mxPoint x="320" y="397.5" as="sourcePoint" />
            <Array as="points">
              <mxPoint x="530" y="437.5" />
            </Array>
          </mxGeometry>
        </mxCell>
        <mxCell id="OGcHaT_iSXUaaKnwIIUN-32" value="M" style="dashed=0;outlineConnect=0;align=center;html=1;shape=mxgraph.pid.engines.electric_motor;fontSize=45;aspect=fixed;" vertex="1" parent="1">
          <mxGeometry x="479.99999999999994" y="426.5" width="100" height="100" as="geometry" />
        </mxCell>
        <mxCell id="OGcHaT_iSXUaaKnwIIUN-33" style="edgeStyle=elbowEdgeStyle;rounded=0;orthogonalLoop=1;jettySize=auto;html=1;exitX=1;exitY=0.8;exitDx=0;exitDy=0;fontSize=15;endArrow=none;endFill=0;" edge="1" parent="1" source="OGcHaT_iSXUaaKnwIIUN-52">
          <mxGeometry relative="1" as="geometry">
            <mxPoint x="220" y="397.5" as="sourcePoint" />
            <mxPoint x="320" y="401.5" as="targetPoint" />
            <Array as="points">
              <mxPoint x="320" y="401.5" />
            </Array>
          </mxGeometry>
        </mxCell>
        <mxCell id="OGcHaT_iSXUaaKnwIIUN-34" style="edgeStyle=none;rounded=0;orthogonalLoop=1;jettySize=auto;html=1;exitX=0;exitY=0.5;exitDx=0;exitDy=0;exitPerimeter=0;fontSize=15;endArrow=none;endFill=0;" edge="1" parent="1" source="OGcHaT_iSXUaaKnwIIUN-36">
          <mxGeometry relative="1" as="geometry">
            <mxPoint x="320" y="467.5" as="targetPoint" />
          </mxGeometry>
        </mxCell>
        <mxCell id="OGcHaT_iSXUaaKnwIIUN-35" style="edgeStyle=orthogonalEdgeStyle;rounded=0;orthogonalLoop=1;jettySize=auto;html=1;exitX=1;exitY=0.5;exitDx=0;exitDy=0;exitPerimeter=0;entryX=0.5;entryY=1;entryDx=0;entryDy=0;entryPerimeter=0;fontSize=15;endArrow=none;endFill=0;" edge="1" parent="1" source="OGcHaT_iSXUaaKnwIIUN-36" target="OGcHaT_iSXUaaKnwIIUN-32">
          <mxGeometry relative="1" as="geometry">
            <Array as="points">
              <mxPoint x="530" y="567.5" />
            </Array>
          </mxGeometry>
        </mxCell>
        <mxCell id="OGcHaT_iSXUaaKnwIIUN-36" value="" style="pointerEvents=1;verticalLabelPosition=bottom;shadow=0;dashed=0;align=center;html=1;verticalAlign=top;shape=mxgraph.electrical.resistors.resistor_1;fontSize=15;direction=south;" vertex="1" parent="1">
          <mxGeometry x="310" y="467.5" width="20" height="100" as="geometry" />
        </mxCell>
        <mxCell id="OGcHaT_iSXUaaKnwIIUN-37" style="edgeStyle=elbowEdgeStyle;rounded=0;orthogonalLoop=1;jettySize=auto;html=1;exitX=1;exitY=0.5;exitDx=0;exitDy=0;exitPerimeter=0;entryX=0;entryY=0.8;entryDx=0;entryDy=0;fontSize=15;endArrow=none;endFill=0;" edge="1" parent="1" source="OGcHaT_iSXUaaKnwIIUN-39">
          <mxGeometry relative="1" as="geometry">
            <mxPoint x="140" y="397.5" as="targetPoint" />
            <Array as="points">
              <mxPoint x="80" y="407.5" />
            </Array>
          </mxGeometry>
        </mxCell>
        <mxCell id="OGcHaT_iSXUaaKnwIIUN-38" style="edgeStyle=elbowEdgeStyle;rounded=0;orthogonalLoop=1;jettySize=auto;html=1;exitX=0;exitY=0.5;exitDx=0;exitDy=0;exitPerimeter=0;entryX=1;entryY=0.5;entryDx=0;entryDy=0;entryPerimeter=0;fontSize=15;endArrow=none;endFill=0;startArrow=none;" edge="1" parent="1" source="OGcHaT_iSXUaaKnwIIUN-42" target="OGcHaT_iSXUaaKnwIIUN-36">
          <mxGeometry relative="1" as="geometry">
            <Array as="points" />
          </mxGeometry>
        </mxCell>
        <mxCell id="OGcHaT_iSXUaaKnwIIUN-39" value="" style="verticalLabelPosition=bottom;shadow=0;dashed=0;align=center;fillColor=strokeColor;html=1;verticalAlign=top;strokeWidth=1;shape=mxgraph.electrical.miscellaneous.monocell_battery;fontSize=15;direction=north;" vertex="1" parent="1">
          <mxGeometry x="50" y="427.5" width="60" height="100" as="geometry" />
        </mxCell>
        <mxCell id="OGcHaT_iSXUaaKnwIIUN-40" value="" style="ellipse;whiteSpace=wrap;html=1;fillColor=#000000;aspect=fixed;fontSize=15;" vertex="1" parent="1">
          <mxGeometry x="317.5" y="395" width="5" height="5" as="geometry" />
        </mxCell>
        <mxCell id="OGcHaT_iSXUaaKnwIIUN-41" value="" style="edgeStyle=elbowEdgeStyle;rounded=0;orthogonalLoop=1;jettySize=auto;html=1;exitX=0;exitY=0.5;exitDx=0;exitDy=0;exitPerimeter=0;entryX=1;entryY=0.5;entryDx=0;entryDy=0;entryPerimeter=0;fontSize=15;endArrow=none;endFill=0;" edge="1" parent="1" source="OGcHaT_iSXUaaKnwIIUN-39" target="OGcHaT_iSXUaaKnwIIUN-42">
          <mxGeometry relative="1" as="geometry">
            <mxPoint x="80" y="527.5" as="sourcePoint" />
            <mxPoint x="320" y="567.5" as="targetPoint" />
            <Array as="points">
              <mxPoint x="80" y="547.5" />
            </Array>
          </mxGeometry>
        </mxCell>
        <mxCell id="OGcHaT_iSXUaaKnwIIUN-42" value="" style="ellipse;whiteSpace=wrap;html=1;fillColor=#000000;aspect=fixed;fontSize=15;" vertex="1" parent="1">
          <mxGeometry x="317.5" y="565" width="5" height="5" as="geometry" />
        </mxCell>
        <mxCell id="OGcHaT_iSXUaaKnwIIUN-43" value="14&amp;nbsp;&lt;span style=&quot;font-family: sans-serif; text-align: start; background-color: rgb(255, 255, 255);&quot;&gt;&lt;font style=&quot;font-size: 15px;&quot;&gt;â„¦ &lt;/font&gt;&lt;/span&gt;" style="text;html=1;strokeColor=none;fillColor=none;align=center;verticalAlign=middle;whiteSpace=wrap;rounded=0;fontSize=15;" vertex="1" parent="1">
          <mxGeometry x="330" y="502.5" width="60" height="30" as="geometry" />
        </mxCell>
        <mxCell id="OGcHaT_iSXUaaKnwIIUN-45" value="IN 4002" style="text;html=1;strokeColor=none;fillColor=none;align=center;verticalAlign=middle;whiteSpace=wrap;rounded=0;fontSize=15;" vertex="1" parent="1">
          <mxGeometry x="322.5" y="425.94" width="60" height="30" as="geometry" />
        </mxCell>
        <mxCell id="OGcHaT_iSXUaaKnwIIUN-46" value="Water pump" style="text;html=1;strokeColor=none;fillColor=none;align=center;verticalAlign=middle;whiteSpace=wrap;rounded=0;fontSize=15;" vertex="1" parent="1">
          <mxGeometry x="580" y="462.5" width="60" height="30" as="geometry" />
        </mxCell>
        <mxCell id="OGcHaT_iSXUaaKnwIIUN-47" value="&lt;font style=&quot;font-size: 19px;&quot;&gt;+&lt;/font&gt;" style="text;html=1;strokeColor=none;fillColor=none;align=center;verticalAlign=middle;whiteSpace=wrap;rounded=0;fontSize=15;" vertex="1" parent="1">
          <mxGeometry x="508" y="519.5" width="60" height="30" as="geometry" />
        </mxCell>
        <mxCell id="OGcHaT_iSXUaaKnwIIUN-48" value="&lt;font style=&quot;font-size: 22px;&quot;&gt;-&lt;/font&gt;" style="text;html=1;strokeColor=none;fillColor=none;align=center;verticalAlign=middle;whiteSpace=wrap;rounded=0;fontSize=15;" vertex="1" parent="1">
          <mxGeometry x="508" y="401.5" width="60" height="30" as="geometry" />
        </mxCell>
        <mxCell id="OGcHaT_iSXUaaKnwIIUN-51" value="24 V" style="text;html=1;strokeColor=none;fillColor=none;align=center;verticalAlign=middle;whiteSpace=wrap;rounded=0;fontSize=15;" vertex="1" parent="1">
          <mxGeometry y="489.5" width="60" height="30" as="geometry" />
        </mxCell>
        <mxCell id="OGcHaT_iSXUaaKnwIIUN-52" value="" style="shape=mxgraph.electrical.electro-mechanical.singleSwitch;aspect=fixed;elSwitchState=off;fontSize=12;fontColor=#000000;" vertex="1" parent="1">
          <mxGeometry x="139" y="381.5" width="75" height="20" as="geometry" />
        </mxCell>
        <mxCell id="OGcHaT_iSXUaaKnwIIUN-53" value="" style="shape=mxgraph.electrical.electro-mechanical.singleSwitch;aspect=fixed;elSwitchState=on;fontSize=15;fontColor=#000000;direction=south;" vertex="1" parent="1">
          <mxGeometry x="315.49" y="395" width="24.5" height="91.88" as="geometry" />
        </mxCell>
        <mxCell id="OGcHaT_iSXUaaKnwIIUN-55" value="&lt;font style=&quot;font-size: 19px;&quot;&gt;+&lt;/font&gt;" style="text;html=1;strokeColor=none;fillColor=none;align=center;verticalAlign=middle;whiteSpace=wrap;rounded=0;fontSize=15;" vertex="1" parent="1">
          <mxGeometry x="270" y="540" width="60" height="30" as="geometry" />
        </mxCell>
        <mxCell id="OGcHaT_iSXUaaKnwIIUN-58" value="&lt;font style=&quot;font-size: 22px;&quot;&gt;-&lt;/font&gt;" style="text;html=1;strokeColor=none;fillColor=none;align=center;verticalAlign=middle;whiteSpace=wrap;rounded=0;fontSize=15;" vertex="1" parent="1">
          <mxGeometry x="270.5" y="462.5" width="60" height="30" as="geometry" />
        </mxCell>
        <mxCell id="OGcHaT_iSXUaaKnwIIUN-62" value="" style="verticalLabelPosition=bottom;verticalAlign=top;html=1;shape=mxgraph.basic.arc;startAngle=0.3;endAngle=0.12220809442984952;fontSize=12;fontColor=#000000;" vertex="1" parent="1">
          <mxGeometry x="382.5" y="452.5" width="80" height="80" as="geometry" />
        </mxCell>
        <mxCell id="OGcHaT_iSXUaaKnwIIUN-63" value="" style="endArrow=classic;html=1;rounded=0;fontSize=22;fontColor=#000000;exitX=0.847;exitY=0.14;exitDx=0;exitDy=0;exitPerimeter=0;" edge="1" parent="1" source="OGcHaT_iSXUaaKnwIIUN-62">
          <mxGeometry width="50" height="50" relative="1" as="geometry">
            <mxPoint x="450" y="470" as="sourcePoint" />
            <mxPoint x="460" y="470" as="targetPoint" />
            <Array as="points">
              <mxPoint x="460" y="470" />
            </Array>
          </mxGeometry>
        </mxCell>
      </root>
    </mxGraphModel>
  </diagram>
</mxfile>
